<svg width="41" height="27" viewBox="0 0 41 27" fill="none" xmlns="http://www.w3.org/2000/svg">
<path d="M19 8.41211H40.5V21.9121C40.5 23.2928 39.3807 24.4121 38 24.4121H2.5V5.41211H14.7574C15.4204 5.41211 16.0563 5.6755 16.5251 6.14434L18.6464 8.26566L18.7929 8.41211H19Z" fill="#23B82E" stroke="#19A824"/>
<rect y="0.912109" width="3" height="26" rx="1.5" fill="black"/>
<rect x="8" y="7.91211" width="3" height="4" rx="1.5" fill="black"/>
<path d="M3 7.91211H4C5.10457 7.91211 6 8.80754 6 9.91211C6 11.0167 5.10457 11.9121 4 11.9121H3V7.91211Z" fill="black"/>
<rect x="35" y="3.91211" width="3" height="4" fill="#FF8A00"/>
<path d="M29 6.91211C29 5.25526 30.3431 3.91211 32 3.91211V7.91211H29V6.91211Z" fill="#FF8A00"/>
<path d="M38 3.91211C39.6569 3.91211 41 5.25526 41 6.91211V7.91211H38V3.91211Z" fill="#FFC683"/>
<rect x="32" y="3.91211" width="3" height="4" fill="#FFC683"/>
<path fill-rule="evenodd" clip-rule="evenodd" d="M26.8991 14.8554C27.392 15.3701 27.6349 16.0623 27.6349 16.9359V21.6332H25.1847V17.639C25.1847 17.2149 25.0724 16.8851 24.8476 16.6386C24.6229 16.3958 24.3112 16.2726 23.9198 16.2726C23.4703 16.2834 23.1151 16.4393 22.8505 16.7474C22.5896 17.0555 22.4591 17.4578 22.4591 17.9507V21.6332H20.0089V11.4121H22.4591V15.3918C22.7237 14.9605 23.068 14.6343 23.4848 14.4132C23.9016 14.1921 24.3837 14.0834 24.9238 14.0834C25.7501 14.087 26.4062 14.3443 26.8991 14.8554ZM17.8148 21.6146C18.1736 21.5276 18.4889 21.4044 18.7644 21.2486L18.2968 19.5124C17.9307 19.6755 17.6118 19.7589 17.3472 19.7589C16.9159 19.7589 16.6984 19.4943 16.6984 18.9724V16.1634H18.6267V14.5396H16.6984V12.4736H14.2627V14.5396H13.2298V16.1634H14.2627V19.3602C14.2627 20.1068 14.4911 20.6868 14.9442 21.1108C15.3972 21.5349 15.9916 21.7451 16.7274 21.7451C17.0935 21.7451 17.4559 21.7016 17.8148 21.6146ZM12.6658 18.121C12.6658 16.8742 12.3396 15.892 11.6872 15.1743C11.0348 14.4567 10.1033 14.0978 8.88547 14.1015C8.11345 14.1015 7.43204 14.2609 6.84487 14.5763C6.2577 14.8916 5.80464 15.341 5.48206 15.9246C5.15948 16.5081 5 17.1823 5 17.9434C5 18.6973 5.15948 19.357 5.47481 19.926C5.79014 20.4951 6.24683 20.9373 6.84487 21.249C7.44292 21.5607 8.14245 21.7166 8.93984 21.7166C9.62849 21.7166 10.2447 21.6042 10.792 21.3795C11.3393 21.1548 11.8068 20.8249 12.191 20.3936L10.9116 19.1142C10.6651 19.3643 10.3896 19.5527 10.0924 19.6796C9.79522 19.8064 9.48714 19.8717 9.16456 19.8717C8.74411 19.8717 8.38529 19.7593 8.0917 19.5346C7.79812 19.3099 7.59152 18.9873 7.47191 18.5632H12.6513C12.6622 18.4617 12.6658 18.3131 12.6658 18.121ZM9.90396 16.2146C10.154 16.4755 10.2809 16.8235 10.2809 17.2548H7.41754C7.49728 16.8126 7.67126 16.461 7.93222 16.2073C8.19319 15.9536 8.51939 15.8231 8.90359 15.8231C9.31679 15.8231 9.65024 15.9536 9.90396 16.2146ZM32.225 21.9121H34.805V11.9071H32.57L29.075 15.3571L30.545 16.9021L32.225 15.2071V21.9121Z" fill="white"/>
</svg>
